<?xml version="1.0" standalone="no"?><!DOCTYPE svg PUBLIC "-//W3C//DTD SVG 1.1//EN" "http://www.w3.org/Graphics/SVG/1.1/DTD/svg11.dtd"><svg t="1743214577387" class="icon" viewBox="0 0 1024 1024" version="1.1" xmlns="http://www.w3.org/2000/svg" p-id="8720" xmlns:xlink="http://www.w3.org/1999/xlink" width="200" height="200"><path d="M563.744 320.512a51.264 51.264 0 1 1-102.496 0 51.264 51.264 0 0 1 102.496 0z m-51.232-275.456c-262.656 0-480.48 217.824-480.48 480.48s217.824 480.48 480.48 480.48 480.48-217.824 480.48-480.48S775.168 45.056 512.512 45.056zM102.496 525.504c0-224.224 179.36-410.016 410.016-410.016 115.328 0 204.992 89.696 204.992 204.992s-89.696 204.992-204.992 204.992-204.992 89.696-204.992 204.992 89.696 204.992 204.992 204.992c-224.224 0-410.016-185.792-410.016-410.016z m461.248 205.024c0 25.632-19.232 51.264-51.264 51.264s-51.264-25.632-51.264-51.264c0-32.032 25.632-51.264 51.264-51.264s51.264 19.232 51.264 51.264z" p-id="8721"></path></svg>