<?xml version="1.0" standalone="no"?><!DOCTYPE svg PUBLIC "-//W3C//DTD SVG 1.1//EN" "http://www.w3.org/Graphics/SVG/1.1/DTD/svg11.dtd"><svg t="1743214753220" class="icon" viewBox="0 0 1333 1024" version="1.1" xmlns="http://www.w3.org/2000/svg" p-id="14778" xmlns:xlink="http://www.w3.org/1999/xlink" width="260.3515625" height="200"><path d="M1302.571016 324.020179l-565.1598 222.38143a154.869129 154.869129 0 0 1-142.696456 0L29.554959 324.020179a44.752473 44.752473 0 0 1 0-84.185795L594.71476 17.452953a154.562255 154.562255 0 0 1 142.696456 0l565.1598 222.381431a44.752473 44.752473 0 0 1 0 84.185795z m-195.887967-69.148964l-390.75302-141.11094a114.617476 114.617476 0 0 0-98.199712 0L226.977297 254.871215a27.567523 27.567523 0 0 0 0 53.396093l390.75302 141.162086a114.617476 114.617476 0 0 0 98.199712 0l390.75302-141.162086a27.567523 27.567523 0 0 0 0-53.396093zM666.830173 1024c-343.698992 0-409.165466-153.43705-409.165466-153.43705v-358.019783s42.962374 21.430041 102.291366 48.230379V814.302699s49.099856 107.405935 306.8741 107.405934 306.8741-107.405935 306.8741-107.405934v-253.017696c59.328993-27.056066 102.291367-48.741836 102.291366-48.741836v358.019783s-65.466475 153.43705-409.165466 153.43705z m537.029675-767.185249a25.572842 25.572842 0 0 1 25.572841 25.572841v255.728417a25.572842 25.572842 0 0 1-51.145683 0v-255.728417a25.572842 25.572842 0 0 1 25.572842-25.572841z m0 358.019783a25.572842 25.572842 0 0 1 25.572841 25.572841v102.291367a25.572842 25.572842 0 0 1-51.145683 0v-102.291367a25.572842 25.572842 0 0 1 25.572842-25.572841z" fill="#606266" p-id="14779"></path></svg>