<?xml version="1.0" standalone="no"?><!DOCTYPE svg PUBLIC "-//W3C//DTD SVG 1.1//EN" "http://www.w3.org/Graphics/SVG/1.1/DTD/svg11.dtd"><svg t="1743214760538" class="icon" viewBox="0 0 1024 1024" version="1.1" xmlns="http://www.w3.org/2000/svg" p-id="14921" xmlns:xlink="http://www.w3.org/1999/xlink" width="200" height="200"><path d="M131.831222 12.76808c-20.428928 7.660848-40.857855 17.875312-58.733167 33.197007C96.080599 79.162095 126.72399 104.698254 152.26015 132.78803c38.304239 43.411471 79.162095 84.269327 117.466334 127.680798 20.428928-2.553616 40.857855-5.107232 58.733167-7.660848 12.76808-2.553616 20.428928-10.214464 28.089775-20.428928C313.137955 160.877805 272.2801 89.376559 231.422244 17.875312L223.761397 2.553616h-76.608479c0 10.214464-7.660848 10.214464-15.321696 10.214464z" fill="#E13336" p-id="14922"></path><path d="M142.045686 7.660848c-25.53616 5.107232-51.072319 15.321696-71.501247 35.750623 0 2.553616 2.553616 2.553616 2.553616 2.553616 17.875312-15.321696 38.304239-25.53616 61.286783-30.643391 5.107232-2.553616 15.321696 0 15.321696-10.214464-2.553616 2.553616-5.107232 0-7.660848 2.553616z" fill="#E13336" p-id="14923"></path><path d="M719.162893 188.967581c22.982544-7.660848 43.411471-15.321696 68.947631-10.214464 28.089776 7.660848 53.625935 22.982544 66.394015 51.072319 22.982544-30.643392 56.179551-53.625935 84.269326-79.162094 17.875312-17.875312 35.750623-33.197007 53.625935-53.625936C969.417257 53.625935 931.113017 28.089776 885.14793 12.76808c-7.660848-2.553616-17.875312 0-17.875312-10.214464h-51.072319c-12.76808 38.304239-38.304239 71.501247-53.625935 107.25187-15.321696 25.53616-28.089776 53.625935-43.411471 79.162095z" fill="#DB2125" p-id="14924"></path><path d="M885.14793 12.76808c45.965087 15.321696 84.269327 40.857855 104.698255 84.269326 0-2.553616 2.553616-2.553616 2.553615-5.107231-15.321696-30.643392-40.857855-53.625935-68.94763-68.947631-17.875312-10.214464-38.304239-12.76808-58.733168-20.428928 2.553616 10.214464 12.76808 7.660848 20.428928 10.214464zM348.888579 214.503741c2.553616 5.107232 7.660848 10.214464 7.660847 17.875311 12.76808-10.214464 28.089776-20.428928 45.965088-25.536159 17.875312-5.107232 35.750623-2.553616 51.072319 2.553616-5.107232-56.179551-10.214464-109.805486-15.321696-165.985038V5.107232H223.761397c22.982544 30.643392 40.857855 63.840399 58.733167 97.037406 22.982544 35.750623 45.965087 74.054863 66.394015 112.359103z" fill="#DB2125" p-id="14925"></path><path d="M353.99581 232.379052c2.553616 0 2.553616-2.553616 0 0 2.553616-7.660848-2.553616-12.76808-5.107231-17.875311-22.982544-38.304239-43.411471-76.608479-66.394015-112.359103-17.875312-35.750623-33.197007-68.947631-58.733167-99.591022l7.660847 15.321696L353.99581 232.379052z" fill="#DB2125" p-id="14926"></path><path d="M458.694065 186.413965V206.842893c0 2.553616-2.553616 2.553616-2.553616 2.553616 17.875312 10.214464 33.197007 0 45.965087-12.76808 15.321696-17.875312 33.197007-35.750623 56.179551-43.411471 5.107232-51.072319 10.214464-99.591022 15.321696-150.663342h-135.341646c5.107232 5.107232 5.107232 12.76808 5.107232 17.875312 5.107232 56.179551 10.214464 109.805486 15.321696 165.985037z" fill="#E13336" p-id="14927"></path><path d="M438.265137 40.857855c5.107232 56.179551 10.214464 109.805486 15.321696 165.985038l2.553616-2.553616c2.553616-5.107232 2.553616-12.76808 0-20.428928-5.107232-53.625935-10.214464-109.805486-15.321696-163.431421 0-7.660848 0-12.76808-5.107232-17.875312 2.553616 12.76808 2.553616 25.53616 2.553616 38.304239zM645.10803 168.538653c20.428928 22.982544 43.411471 38.304239 74.054863 20.428928-2.553616-5.107232 0-10.214464 0-12.76808 30.643392-56.179551 58.733167-112.359102 89.376558-168.538653 0-2.553616 2.553616-2.553616 5.107232-5.107232h-114.912718c-10.214464 45.965087-30.643392 91.930175-45.965087 137.895262 0 10.214464-5.107232 17.875312-7.660848 28.089775z" fill="#E13336" p-id="14928"></path><path d="M811.093067 7.660848c-30.643392 56.179551-61.286783 112.359102-89.376558 168.538653-2.553616 5.107232-2.553616 10.214464 0 12.76808 12.76808-25.53616 28.089776-51.072319 40.857855-79.162095 17.875312-35.750623 40.857855-68.947631 53.625935-107.25187-2.553616 2.553616-5.107232 2.553616-5.107232 5.107232z" fill="#E13336" p-id="14929"></path><path d="M576.160399 28.089776c-2.553616 40.857855-7.660848 81.715711-12.76808 120.01995v2.553616c30.643392-7.660848 56.179551 0 81.715711 15.321695 7.660848-40.857855 22.982544-76.608479 35.750623-114.912718 5.107232-17.875312 7.660848-35.750623 20.428928-51.072319h-127.680798c5.107232 10.214464 2.553616 20.428928 2.553616 28.089776z" fill="#DB2125" p-id="14930"></path><path d="M560.838703 153.216958v-2.553616c7.660848-40.857855 10.214464-79.162095 12.76808-120.01995 0-7.660848 5.107232-17.875312-2.553616-25.53616-5.107232 51.072319-10.214464 99.591022-15.321696 150.663342 2.553616-2.553616 2.553616-2.553616 5.107232-2.553616zM642.554414 168.538653s2.553616 0 0 0c5.107232-7.660848 10.214464-17.875312 12.76808-28.089775 12.76808-45.965087 33.197007-89.376559 45.965087-137.895262-12.76808 15.321696-15.321696 33.197007-20.428928 51.072319-15.321696 38.304239-30.643392 74.054863-38.304239 114.912718zM244.190324 776.299252c5.107232-5.107232 7.660848-10.214464 15.321696-10.214464-56.179551-25.53616-79.162095-74.054863-91.930175-132.78803 0-5.107232 0-10.214464-2.553616-15.321696 0 7.660848-2.553616 15.321696-12.768079 17.875312-45.965087 12.76808-94.483791 25.53616-140.448878 40.857855H6.70404v155.770574c0 61.286783 22.982544 109.805486 74.054863 145.55611 17.875312-28.089776 40.857855-53.625935 61.286783-79.162095 35.750623-38.304239 68.947631-79.162095 102.144638-122.573566z" fill="#DB2125" p-id="14931"></path><path d="M83.312519 983.142145C32.2402 947.391521 9.257656 898.872818 9.257656 837.586035v-155.770574H4.150424c0 56.179551-2.553616 114.912718 0 171.09227s28.089776 102.144638 79.162095 135.341646c-2.553616-2.553616 0-2.553616 0-5.107232zM874.933466 612.86783c-7.660848 25.53616-10.214464 53.625935-22.982543 79.162095-5.107232 10.214464-10.214464 22.982544-17.875312 33.197008-15.321696 17.875312-33.197007 30.643392-58.733167 22.982543-7.660848-5.107232-12.76808-5.107232-10.214464 5.107232 25.53616 12.76808 45.965087 35.750623 66.394015 53.625935 51.072319 43.411471 99.591022 89.376559 153.216958 130.234414 0 0 0-2.553616 2.553616-2.553616 17.875312-30.643392 28.089776-63.840399 28.089775-97.037406v-201.735661c-40.857855-2.553616-81.715711-10.214464-120.01995-17.875312-10.214464-2.553616-15.321696-5.107232-20.428928-5.107232z" fill="#DB2125" p-id="14932"></path><path d="M1010.275112 835.032419c0 35.750623-7.660848 68.947631-28.089775 97.037406 0 0 0 2.553616-2.553616 2.553616 2.553616 0 2.553616 2.553616 5.107232 2.553616 17.875312-25.53616 28.089776-56.179551 30.643391-86.822942v-219.610973h-5.107232v204.289277zM172.689077 339.630923c17.875312-12.76808 35.750623-25.53616 48.518704-45.965088 10.214464-17.875312 28.089776-22.982544 45.965087-33.197007-5.107232-2.553616-7.660848-7.660848-12.76808-10.214464-56.179551-61.286783-112.359102-122.573566-171.092269-181.306733-5.107232-7.660848-12.76808-12.76808-15.321696-20.428928C27.132968 81.715711 9.257656 125.127182 6.70404 176.199501v76.608479c45.965087 22.982544 91.930175 48.518703 137.895262 71.501247 10.214464 2.553616 20.428928 7.660848 28.089775 15.321696z" fill="#DB2125" p-id="14933"></path><path d="M6.70404 176.199501c2.553616-51.072319 20.428928-94.483791 61.286783-127.680798v-5.107232C32.2402 68.947631 14.364888 102.144638 4.150424 145.55611c-5.107232 33.197007-2.553616 66.394015-2.553616 102.144638 2.553616 0 2.553616 2.553616 5.107232 2.553616V176.199501z" fill="#DB2125" p-id="14934"></path><path d="M67.990823 48.518703c2.553616 7.660848 10.214464 12.76808 15.321696 20.428928C142.045686 130.234414 198.225237 191.521197 254.404788 252.80798c2.553616 5.107232 7.660848 7.660848 12.76808 10.214464h2.553616C231.422244 219.610973 190.564389 178.753117 152.26015 135.341646 126.72399 104.698254 96.080599 79.162095 73.098055 48.518703c-2.553616-2.553616-2.553616-2.553616-5.107232 0 2.553616-2.553616 2.553616-2.553616 0 0z" fill="#DB2125" p-id="14935"></path><path d="M67.990823 48.518703c2.553616-2.553616 2.553616-2.553616 0 0l2.553616-2.553616c0-2.553616-2.553616-2.553616-2.553616-2.553616v5.107232zM440.818753 873.336658c-45.965087-5.107232-63.840399-30.643392-66.394015-79.162094 0-10.214464 5.107232-22.982544-12.76808-28.089776-38.304239 63.840399-79.162095 127.680798-117.466334 191.521197-10.214464 17.875312-22.982544 33.197007-30.643391 53.625935h234.932668c0-45.965087 10.214464-91.930175 12.76808-137.895262-5.107232 2.553616-12.76808 2.553616-20.428928 0zM451.033217 1011.23192H218.654165h-2.553616c0 2.553616-2.553616 2.553616-2.553616 5.107232h237.486284v-5.107232z" fill="#DB2125" p-id="14936"></path><path d="M793.217756 778.852868c-10.214464-7.660848-22.982544-15.321696-30.643392-25.53616-5.107232 10.214464-2.553616 20.428928-5.107232 30.643392-5.107232 22.982544-17.875312 40.857855-33.197007 58.733167l114.912718 168.538653c58.733167 0 107.25187-22.982544 140.448878-71.501247-5.107232 0-10.214464-5.107232-15.321696-10.214464-56.179551-51.072319-114.912718-99.591022-171.092269-150.663341z" fill="#E13336" p-id="14937"></path><path d="M979.631721 939.730673c-33.197007 48.518703-81.715711 71.501247-140.448878 71.501247 0 2.553616 2.553616 2.553616 2.553616 5.107232 61.286783 0 109.805486-25.53616 145.55611-76.608479h-7.660848zM765.12798 753.316708s-2.553616 0 0 0c7.660848 12.76808 20.428928 17.875312 30.643392 25.53616 56.179551 51.072319 114.912718 99.591022 171.092269 150.663341 5.107232 5.107232 7.660848 10.214464 15.321696 10.214464 0-2.553616 2.553616-2.553616 2.553616-5.107232-53.625935-40.857855-99.591022-86.822943-153.216958-130.234414-22.982544-17.875312-40.857855-40.857855-66.394015-51.072319z" fill="#E13336" p-id="14938"></path><path d="M982.185337 937.177057c0 2.553616-2.553616 2.553616-2.553616 5.107232h7.660848c-2.553616-5.107232-2.553616-5.107232-5.107232-5.107232zM216.100549 998.46384l130.234414-214.50374c2.553616-5.107232 7.660848-12.76808 12.768079-15.321696-2.553616-2.553616-7.660848-5.107232-10.214463-7.660848-10.214464-12.76808-15.321696-12.76808-30.643392-2.553616-12.76808 10.214464-35.750623 10.214464-58.733167 10.214464-58.733167 66.394015-109.805486 137.895262-165.985037 206.842893-2.553616 2.553616-5.107232 7.660848-7.660848 10.214464 33.197007 20.428928 68.947631 28.089776 107.25187 28.089775h17.875312c-2.553616-7.660848 2.553616-12.76808 5.107232-15.321696z" fill="#E13336" p-id="14939"></path><path d="M193.118005 1011.23192c-38.304239 0-74.054863-5.107232-107.25187-28.089775-2.553616 0-2.553616 2.553616-5.107232 2.553616 38.304239 30.643392 84.269327 33.197007 130.234414 30.643391 0-2.553616-2.553616-2.553616-2.553616-5.107232h-15.321696zM93.526983 972.927681c56.179551-68.947631 107.25187-140.448878 165.985037-206.842893-7.660848 0-10.214464 5.107232-15.321696 10.214464-33.197007 43.411471-66.394015 84.269327-99.591022 125.127182-20.428928 25.53616-43.411471 51.072319-61.286783 79.162095 0 0 2.553616 0 2.553616 2.553616 2.553616-2.553616 5.107232-5.107232 7.660848-10.214464z" fill="#E13336" p-id="14940"></path><path d="M83.312519 983.142145c0 2.553616-2.553616 2.553616-2.553616 5.107232 2.553616 0 2.553616-2.553616 2.553616-5.107232 2.553616 0 0 0 0 0zM364.210274 768.638404s-2.553616-2.553616 0 0c-7.660848 2.553616-10.214464 10.214464-15.321695 15.321696-43.411471 71.501247-89.376559 143.002494-130.234414 214.50374-2.553616 5.107232-7.660848 10.214464-7.660848 15.321696h5.107232c7.660848-17.875312 20.428928-35.750623 30.643391-53.625935 38.304239-63.840399 76.608479-127.680798 117.466334-191.521197z" fill="#E13336" p-id="14941"></path><path d="M210.993317 1011.23192c0 2.553616 0 2.553616 2.553616 5.107232 0-2.553616 2.553616-2.553616 2.553616-5.107232h-5.107232zM892.808778 196.628429c-12.76808 10.214464-22.982544 25.53616-38.304239 33.197007 12.76808 45.965087 15.321696 91.930175 15.321695 137.895262 0 7.660848 0 12.76808 2.553616 20.428928 30.643392-7.660848 58.733167-20.428928 86.822943-30.643392 17.875312-5.107232 33.197007-12.76808 51.072319-17.875311V196.628429c0-30.643392-5.107232-61.286783-17.875312-91.930175 0 2.553616-2.553616 2.553616-2.553615 5.107232-30.643392 28.089776-63.840399 58.733167-97.037407 86.822943z" fill="#E13336" p-id="14942"></path><path d="M992.3998 102.144638c12.76808 28.089776 17.875312 58.733167 17.875312 91.930175v143.002494c2.553616 0 2.553616 0 5.107232-2.553616V165.985037c0-25.53616-7.660848-51.072319-22.982544-74.054862 2.553616 5.107232 2.553616 7.660848 0 10.214463zM854.504539 229.825436c17.875312-7.660848 25.53616-22.982544 38.304239-33.197007 33.197007-28.089776 66.394015-58.733167 97.037407-89.376559 0 0 2.553616-2.553616 2.553615-5.107232 0 0 0-2.553616-2.553615-2.553616 0 0 0-2.553616-2.553616-2.553616-15.321696 20.428928-35.750623 35.750623-53.625936 53.625936-22.982544 25.53616-56.179551 48.518703-79.162094 79.162094z" fill="#E13336" p-id="14943"></path><path d="M992.3998 99.591022s0 2.553616 2.553616 2.553616c2.553616-2.553616 2.553616-5.107232 0-10.214463 0 2.553616-2.553616 2.553616-2.553616 5.107231v2.553616z" fill="#E13336" p-id="14944"></path><path d="M828.968379 1003.571072c-33.197007-51.072319-68.947631-102.144638-102.144638-150.663341-2.553616-2.553616-2.553616-5.107232-2.553616-10.214464-35.750623 22.982544-71.501247 22.982544-112.359103 17.875312-7.660848 0-17.875312-2.553616-25.536159-2.553616 2.553616 51.072319 15.321696 102.144638 22.982543 153.216957h227.271821c-5.107232 0-7.660848-2.553616-7.660848-7.660848z" fill="#DB2125" p-id="14945"></path><path d="M609.357406 1011.23192v5.107232H844.290075c-2.553616 0-5.107232-2.553616-7.660848-5.107232h-227.271821zM724.270125 842.693267c-2.553616 0-2.553616 0 0 0-2.553616 5.107232 0 7.660848 2.553616 10.214464 33.197007 51.072319 68.947631 99.591022 102.144638 150.663341l7.660848 7.660848h5.107232c-40.857855-56.179551-79.162095-112.359102-117.466334-168.538653z" fill="#DB2125" p-id="14946"></path><path d="M836.629227 1011.23192s-2.553616 0 0 0c0 2.553616 2.553616 2.553616 7.660848 5.107232 0-2.553616-2.553616-2.553616-2.553616-5.107232h-5.107232z" fill="#DB2125" p-id="14947"></path><path d="M581.267631 886.104738c-2.553616-7.660848-2.553616-17.875312 2.553616-25.536159-40.857855-5.107232-79.162095 7.660848-120.01995 15.321695l2.553616 2.553616c2.553616 5.107232 2.553616 10.214464 2.553616 17.875312-5.107232 35.750623-7.660848 74.054863-10.214464 109.805486 0 2.553616 0 5.107232-2.553616 10.214464h150.663342c-2.553616-5.107232-5.107232-10.214464-5.107232-15.321696-7.660848-40.857855-15.321696-79.162095-20.428928-114.912718z" fill="#E13336" p-id="14948"></path><path d="M604.250175 1011.23192h-150.663342c0 2.553616-2.553616 2.553616-2.553616 5.107232h158.324189c-2.553616 0-2.553616-2.553616-5.107231-5.107232zM466.354913 893.765586c0-5.107232 0-12.76808-2.553616-17.875312l-2.553616-2.553616c-2.553616 45.965087-10.214464 91.930175-12.76808 137.895262h2.553616c0-2.553616 2.553616-5.107232 2.553616-10.214464 7.660848-33.197007 10.214464-71.501247 12.76808-107.25187z" fill="#E13336" p-id="14949"></path><path d="M451.033217 1011.23192v5.107232c2.553616-2.553616 2.553616-2.553616 2.553616-5.107232h-2.553616zM583.821247 860.568579c-5.107232 7.660848-2.553616 17.875312-2.553616 25.536159 5.107232 35.750623 12.76808 74.054863 17.875312 109.805486 0 5.107232 2.553616 10.214464 5.107232 15.321696h2.553616c-5.107232-51.072319-17.875312-99.591022-22.982544-150.663341zM604.250175 1011.23192c0 2.553616 2.553616 2.553616 5.107231 5.107232v-5.107232h-5.107231z" fill="#E13336" p-id="14950"></path><path d="M892.808778 388.149626c-5.107232 2.553616-12.76808 2.553616-17.875312 0 2.553616 43.411471 7.660848 86.822943 7.660848 130.234414 43.411471 0 86.822943-5.107232 127.680798-5.107232v-173.645885c-2.553616 2.553616-5.107232 2.553616-7.660848 5.107232-35.750623 15.321696-74.054863 30.643392-109.805486 43.411471zM1012.828728 339.630923V513.276808h5.107232v-178.753117l-5.107232 5.107232z" fill="#DB2125" p-id="14951"></path><path d="M874.933466 388.149626c5.107232 5.107232 12.76808 2.553616 17.875312 0 38.304239-12.76808 74.054863-28.089776 112.359102-43.411471 2.553616 0 5.107232-2.553616 7.660848-5.107232v-2.553616c-17.875312 5.107232-33.197007 12.76808-51.072319 17.875311-30.643392 10.214464-56.179551 25.53616-86.822943 33.197008zM1012.828728 337.077307v2.553616l5.107232-5.107232c-2.553616 2.553616-5.107232 2.553616-5.107232 2.553616z" fill="#DB2125" p-id="14952"></path><path d="M139.49207 638.40399c10.214464-2.553616 17.875312-7.660848 22.982543-15.321696h2.553616c0-12.76808-2.553616-22.982544-10.214463-33.197007-10.214464-15.321696-15.321696-33.197007-22.982544-51.072319-40.857855-2.553616-84.269327 5.107232-125.127182 5.107232v135.341645c15.321696-10.214464 35.750623-10.214464 51.072319-15.321695 28.089776-10.214464 56.179551-17.875312 81.715711-25.53616z" fill="#E13336" p-id="14953"></path><path d="M6.70404 676.708229v-135.341645H1.596808v137.895261c2.553616 0 5.107232 0 5.107232-2.553616zM152.26015 640.957606c10.214464-2.553616 12.76808-10.214464 12.768079-17.875312h-2.553616c-5.107232 10.214464-12.76808 12.76808-22.982543 15.321696-25.53616 7.660848-53.625935 15.321696-79.162095 22.982544-17.875312 5.107232-35.750623 7.660848-51.072319 15.321695v2.553616h5.107232L152.26015 640.957606zM6.70404 681.815461v-2.553616c-2.553616 0-2.553616 2.553616-5.107232 2.553616h5.107232zM111.402294 423.900249c7.660848-35.750623 33.197007-58.733167 58.733167-81.71571-53.625935-25.53616-104.698254-53.625935-158.324189-81.715711 0-2.553616-2.553616-2.553616-5.107232-5.107232v148.109726c35.750623 7.660848 68.947631 20.428928 104.698254 20.428927z" fill="#E13336" p-id="14954"></path><path d="M9.257656 403.471322V255.361596L1.596808 247.700748v155.770574h7.660848z" fill="#E13336" p-id="14955"></path><path d="M172.689077 339.630923c-5.107232-7.660848-15.321696-12.76808-25.536159-17.875312-45.965087-22.982544-91.930175-48.518703-137.895262-71.501247v5.107232c0 2.553616 2.553616 2.553616 5.107232 5.107232 51.072319 25.53616 104.698254 53.625935 158.324189 79.162095zM6.70404 255.361596v-2.553616-2.553616s-2.553616 0-5.107232-2.553616c2.553616 2.553616 5.107232 5.107232 5.107232 7.660848zM892.808778 523.491272c-2.553616 0-7.660848-2.553616-10.214464-2.553616l-7.660848 91.930174h2.553616c17.875312-2.553616 35.750623 2.553616 51.072319 5.107232 22.982544 2.553616 45.965087 5.107232 68.947631 10.214464 5.107232 0 10.214464 2.553616 15.321696 2.553616v-112.359102h-2.553616c-40.857855 0-79.162095 5.107232-117.466334 5.107232z" fill="#E13336" p-id="14956"></path><path d="M1012.828728 630.743142c2.553616 0 2.553616 2.553616 5.107232 2.553616V513.276808l-5.107232 5.107232c-2.553616 35.750623-2.553616 74.054863 0 112.359102zM928.559401 615.421446c-17.875312-2.553616-33.197007-7.660848-51.072319-5.107232h-2.553616v2.553616c5.107232 0 10.214464 2.553616 15.321696 2.553616 40.857855 5.107232 79.162095 15.321696 120.01995 17.875312v-2.553616c-5.107232-2.553616-10.214464-2.553616-15.321696-2.553616-20.428928-5.107232-43.411471-7.660848-66.394015-12.76808z" fill="#E13336" p-id="14957"></path><path d="M1012.828728 630.743142c0 2.553616 0 2.553616 0 0 2.553616 0 2.553616 2.553616 5.107232 2.553616-2.553616-2.553616-5.107232-2.553616-5.107232-2.553616zM882.594314 518.38404c2.553616 5.107232 7.660848 5.107232 10.214464 5.107232 38.304239 0 76.608479-5.107232 114.912718-5.107232h2.553616V513.276808c-40.857855 0-84.269327 5.107232-127.680798 5.107232zM1010.275112 513.276808v5.107232c2.553616 0 2.553616-2.553616 5.107232-5.107232h-5.107232z" fill="#E13336" p-id="14958"></path><path d="M129.277606 533.705736s2.553616 0 0 0c-5.107232-35.750623-17.875312-68.947631-17.875312-107.251871-5.107232 2.553616-10.214464 2.553616-17.875311 2.553616-28.089776-5.107232-56.179551-10.214464-81.715711-17.875311-2.553616 0-2.553616 0-5.107232-2.553616v127.680798h5.107232c40.857855 2.553616 79.162095-7.660848 117.466334-2.553616z" fill="#DB2125" p-id="14959"></path><path d="M9.257656 408.578554c-2.553616-2.553616-5.107232-2.553616-5.107232-5.107232v137.895262s2.553616-2.553616 5.107232-2.553616v-130.234414z" fill="#DB2125" p-id="14960"></path><path d="M131.831222 538.812968v-5.107232H129.277606c-38.304239-5.107232-76.608479 5.107232-117.466334 2.553616H6.70404v2.553616c43.411471 5.107232 84.269327-2.553616 125.127182 0zM6.70404 541.366584V538.812968c-2.553616 0-2.553616 2.553616-5.107232 2.553616h5.107232zM96.080599 429.007481c5.107232 0 12.76808 2.553616 17.875311-2.553616v-2.553616c-35.750623 0-68.947631-10.214464-104.698254-17.875311v5.107232h2.553616c28.089776 5.107232 56.179551 12.76808 84.269327 17.875311zM9.257656 408.578554v-5.107232H4.150424c0 2.553616 2.553616 5.107232 5.107232 5.107232z" fill="#DB2125" p-id="14961"></path><path d="M177.796309 339.630923h-5.107232c0 2.553616 0 5.107232-2.553616 5.107232-25.53616 20.428928-43.411471 45.965087-56.179551 76.608478 2.553616 2.553616 2.553616 5.107232 2.553616 7.660848 0 30.643392 10.214464 61.286783 17.875312 91.930175 0 5.107232 2.553616 7.660848 0 12.76808 5.107232 2.553616 7.660848 7.660848 10.214464 12.768079 5.107232 17.875312 10.214464 33.197007 20.428927 48.518704 5.107232 7.660848 7.660848 17.875312 0 25.536159 7.660848 0 7.660848 7.660848 7.660848 12.76808 5.107232 38.304239 22.982544 68.947631 45.965088 99.591023 10.214464 15.321696 28.089776 22.982544 40.857855 33.197007 7.660848-7.660848 15.321696-2.553616 25.53616-5.107232 12.76808-2.553616 25.53616-5.107232 38.304239-10.214464 17.875312-10.214464 30.643392-7.660848 40.857855 15.321696h2.553616c10.214464 0 12.76808 7.660848 12.76808 15.321696v22.982543c5.107232 43.411471 17.875312 58.733167 61.286783 63.840399 7.660848 0 15.321696 0 22.982544 5.107232 38.304239-17.875312 76.608479-30.643392 120.01995-15.321695 5.107232-5.107232 12.76808-5.107232 20.428928-5.107232 35.750623 5.107232 74.054863 5.107232 107.25187-10.214464 2.553616-2.553616 5.107232-2.553616 10.214464-2.553616 12.76808-22.982544 30.643392-43.411471 33.197007-71.501247 0-7.660848 0-15.321696 7.660848-17.875312 0 0 0-2.553616-2.553616-2.553616 0-10.214464 10.214464-10.214464 15.321696-7.660848 25.53616 5.107232 40.857855-7.660848 53.625935-25.536159 17.875312-25.53616 25.53616-53.625935 33.197008-81.715711 2.553616-7.660848 2.553616-15.321696 10.214463-20.428928-7.660848-12.76808-2.553616-25.53616 0-35.750623 0-17.875312 0-38.304239 10.214464-56.179551-10.214464-17.875312-5.107232-38.304239-7.660848-58.733167-2.553616-17.875312-2.553616-35.750623-5.107232-53.625935 0-5.107232 0-12.76808 5.107232-17.875312 0 0-2.553616 0-2.553616-2.553616-12.76808-20.428928-5.107232-43.411471-10.214463-63.840399-2.553616-25.53616-5.107232-51.072319-10.214464-76.608479-2.553616-5.107232-2.553616-12.76808 2.553616-17.875312h-2.553616c-5.107232-2.553616-7.660848-5.107232-10.214464-10.214463-25.53616-33.197007-61.286783-45.965087-104.698255-33.197008-5.107232 2.553616-12.76808 5.107232-17.875311 2.553616-15.321696 15.321696-33.197007 17.875312-51.072319 7.660848-10.214464-7.660848-20.428928-12.76808-25.53616-25.53616-5.107232 0-7.660848 0-10.214464-2.553616-20.428928-10.214464-43.411471-15.321696-66.394015-12.768079-2.553616 0-5.107232 0-7.660848-2.553616-5.107232 7.660848-12.76808 10.214464-20.428927 12.768079-17.875312 12.76808-28.089776 30.643392-45.965088 40.857856-12.76808 7.660848-25.53616 12.76808-38.304239 0-2.553616 2.553616-7.660848 2.553616-12.76808 0-28.089776-7.660848-51.072319 2.553616-71.501247 17.875311-5.107232 2.553616-7.660848 7.660848-12.76808 5.107232V232.379052c-5.107232 10.214464-12.76808 17.875312-25.536159 20.428928-20.428928 2.553616-40.857855 7.660848-61.286783 7.660848-2.553616 0-2.553616 0-5.107232-2.553616-30.643392 25.53616-51.072319 63.840399-86.822943 81.715711z m490.294265 497.955112c-20.428928 2.553616-40.857855 2.553616-63.840399-2.553616-20.428928 0-40.857855 0-61.286783-2.553616h-10.214464c-35.750623 7.660848-68.947631 22.982544-107.251871 12.76808-15.321696-2.553616-20.428928-15.321696-25.536159-28.089776-2.553616-12.76808 2.553616-17.875312 12.76808-22.982543 17.875312-12.76808 38.304239-10.214464 56.179551-15.321696 7.660848-2.553616 15.321696-2.553616 22.982543-7.660848 28.089776-20.428928 58.733167-22.982544 91.930175-20.428928 25.53616 2.553616 48.518703 0 71.501247-15.321695 25.53616-15.321696 51.072319-5.107232 74.054863 7.660847 5.107232 2.553616 5.107232 5.107232 5.107232 10.214464 5.107232 45.965087-22.982544 79.162095-66.394015 84.269327zM308.030723 278.34414c28.089776 0 48.518703-10.214464 66.394015-30.643392 17.875312-20.428928 40.857855-28.089776 68.947631-17.875312 12.76808 2.553616 25.53616 10.214464 38.304239 7.660848h5.107232c17.875312-10.214464 33.197007-25.53616 45.965088-40.857855 25.53616-25.53616 51.072319-30.643392 84.269326-15.321696 22.982544 7.660848 35.750623 30.643392 56.179551 38.30424 22.982544 0 45.965087-5.107232 68.947631-12.76808 43.411471-17.875312 81.715711 5.107232 91.930175 48.518703 10.214464 40.857855 10.214464 81.715711 12.76808 122.573566 12.76808 91.930175 17.875312 186.413965-7.660848 278.34414-5.107232 17.875312-12.76808 38.304239-25.53616 53.625935-10.214464 15.321696-22.982544 20.428928-40.857855 12.76808-12.76808-5.107232-28.089776-10.214464-40.857855-15.321696-10.214464-2.553616-20.428928-7.660848-25.53616-17.875312-12.76808-15.321696-12.76808-33.197007-15.321696-51.072319-7.660848-97.037406-10.214464-194.074813 17.875312-288.558603-7.660848 7.660848-10.214464 15.321696-12.76808 25.536159-2.553616 7.660848-5.107232 17.875312-7.660848 25.53616-7.660848-5.107232-5.107232-15.321696-12.76808-20.428928v28.089776c5.107232 20.428928 5.107232 40.857855 2.553616 61.286783-7.660848 53.625935-7.660848 107.25187-5.107232 160.877805v33.197008c0 25.53616-12.76808 40.857855-33.197007 53.625935-28.089776 15.321696-56.179551 17.875312-86.822943 7.660848-17.875312-2.553616-25.53616-17.875312-30.643391-33.197008-15.321696-35.750623-20.428928-74.054863-22.982544-112.359102-7.660848-71.501247 0-137.895262 17.875312-206.842893 0-5.107232 0-7.660848 2.553616-17.875312-17.875312 28.089776-22.982544 56.179551-28.089776 84.269327-7.660848-2.553616-5.107232-12.76808-10.214464-15.321696v22.982544c7.660848 45.965087 2.553616 91.930175 5.107232 137.895262 2.553616 20.428928 5.107232 40.857855 7.660848 63.840399 5.107232 20.428928 10.214464 43.411471 15.321696 63.840399 2.553616 17.875312-2.553616 30.643392-17.875312 38.304239-30.643392 20.428928-84.269327 17.875312-112.359102-2.553616-17.875312-12.76808-28.089776-28.089776-28.089775-51.072319-2.553616-58.733167-12.76808-117.466334-2.553616-176.199501 5.107232-33.197007 12.76808-66.394015 17.875311-102.144639 0-2.553616 2.553616-7.660848 0-12.768079-15.321696 12.76808-10.214464 33.197007-17.875311 51.072319 0-7.660848-2.553616-10.214464-2.553616-15.321696-7.660848 68.947631-22.982544 137.895262-10.214464 206.842893 2.553616 15.321696 2.553616 30.643392 2.553616 45.965087-2.553616 45.965087-40.857855 66.394015-81.715711 45.965087-43.411471-38.304239-63.840399-86.822943-61.286783-145.556109 0-38.304239 5.107232-76.608479 7.660848-114.912719-12.76808 25.53616-12.76808 56.179551-17.875312 81.715711 0 2.553616 0 5.107232-2.553616 12.76808-7.660848-10.214464-10.214464-20.428928-15.321696-30.643391-12.76808-30.643392-20.428928-61.286783-25.536159-94.483791-2.553616-20.428928 2.553616-38.304239 17.875312-53.625935 7.660848-10.214464 17.875312-20.428928 28.089775-28.089776 20.428928-17.875312 45.965087-30.643392 61.286783-56.179551 7.660848-25.53616 33.197007-33.197007 58.733167-33.197007z" fill="#7B0000" p-id="14962"></path><path d="M272.2801 263.022444c20.428928 0 40.857855-5.107232 61.286783-7.660848 10.214464-2.553616 20.428928-10.214464 25.536159-20.428928V232.379052h-2.553616c-7.660848 10.214464-15.321696 17.875312-28.089775 20.428928-20.428928 2.553616-40.857855 5.107232-58.733167 7.660848h-2.553616c0 2.553616 2.553616 2.553616 5.107232 2.553616zM721.716509 188.967581c7.660848 2.553616 12.76808 0 17.875311-2.553616 40.857855-12.76808 76.608479 0 104.698255 33.197008 2.553616 2.553616 5.107232 7.660848 10.214464 10.214463h2.553616c-12.76808-28.089776-35.750623-40.857855-66.394015-51.072319-28.089776-5.107232-48.518703 2.553616-68.947631 10.214464-2.553616 0-2.553616 0 0 0-2.553616 0-2.553616 0 0 0z" fill="#7B0000" p-id="14963"></path><path d="M356.549426 232.379052c5.107232 0 10.214464-2.553616 12.76808-5.107232 22.982544-15.321696 45.965087-25.53616 71.501247-17.875311 5.107232 0 7.660848 2.553616 12.76808 0-17.875312-7.660848-33.197007-7.660848-51.072319-2.553616-17.875312 2.553616-30.643392 12.76808-45.965088 25.536159zM356.549426 229.825436s0 2.553616 0 0c0 2.553616 0 2.553616 0 0 0 2.553616 0 2.553616 0 0zM491.891072 209.396509c17.875312-12.76808 28.089776-30.643392 45.965088-40.857856 7.660848-5.107232 15.321696-7.660848 20.428927-12.768079l-2.553616-2.553616c-22.982544 7.660848-40.857855 25.53616-56.179551 43.411471-12.76808 12.76808-25.53616 22.982544-45.965087 12.76808 12.76808 12.76808 25.53616 7.660848 38.304239 0z" fill="#7B0000" p-id="14964"></path><path d="M456.140449 209.396509s-2.553616-2.553616 0 0c-2.553616 0-2.553616 0 0 0zM668.090574 196.628429c17.875312 10.214464 38.304239 7.660848 51.072319-7.660848-30.643392 17.875312-53.625935 2.553616-74.054863-20.428928h-2.553616c5.107232 12.76808 15.321696 20.428928 25.53616 28.089776zM719.162893 188.967581zM565.945935 155.770574c22.982544-2.553616 43.411471 2.553616 63.840399 12.768079 2.553616 2.553616 7.660848 2.553616 10.214464 2.553616v-2.553616c-25.53616-15.321696-53.625935-22.982544-81.715711-15.321695V155.770574h7.660848zM560.838703 153.216958h-2.553616 2.553616c-2.553616 0 0 0 0 0z" fill="#7B0000" p-id="14965"></path><path d="M642.554414 171.092269s0-2.553616 0 0c2.553616-2.553616 0-2.553616 0 0 0-2.553616 0-2.553616 0 0zM218.654165 732.887781c-22.982544-30.643392-40.857855-61.286783-45.965088-99.591023 0-5.107232 0-12.76808-7.660848-12.76808 2.553616 5.107232 2.553616 10.214464 2.553616 15.321696 12.76808 56.179551 35.750623 104.698254 91.930175 132.78803-12.76808-12.76808-28.089776-20.428928-40.857855-35.750623zM864.719002 633.296758c-5.107232 28.089776-15.321696 56.179551-33.197007 81.715711-12.76808 17.875312-30.643392 30.643392-53.625935 25.536159-7.660848 0-15.321696-2.553616-15.321696 7.660848 0 0 0 2.553616 2.553616 2.553616 0-7.660848 5.107232-7.660848 10.214464-7.660848 25.53616 7.660848 43.411471-2.553616 58.733167-22.982543 7.660848-10.214464 12.76808-20.428928 17.875312-33.197008 12.76808-25.53616 15.321696-53.625935 22.982543-79.162094v-2.553616c-7.660848 12.76808-10.214464 20.428928-10.214464 28.089775zM221.207781 296.219451c-12.76808 20.428928-28.089776 33.197007-48.518704 45.965088v2.553616h5.107232c35.750623-17.875312 53.625935-56.179551 86.822943-79.162095-15.321696 5.107232-33.197007 12.76808-43.411471 30.643391zM267.172868 263.022444c0-2.553616 0-2.553616 0 0 0-2.553616 0-2.553616 0 0zM440.818753 868.229426c-40.857855-7.660848-56.179551-22.982544-61.286783-63.840399v-22.982543c0-7.660848-2.553616-15.321696-12.76808-15.321696h-2.553616c17.875312 2.553616 10.214464 17.875312 12.76808 28.089776 0 51.072319 20.428928 74.054863 66.394015 79.162094h22.982544c-10.214464-5.107232-17.875312-2.553616-25.53616-5.107232zM754.913516 768.638404c-2.553616 28.089776-20.428928 48.518703-33.197007 71.501247h2.553616c15.321696-15.321696 28.089776-35.750623 33.197007-58.733167 2.553616-10.214464 0-22.982544 5.107232-30.643392-7.660848 5.107232-7.660848 12.76808-7.660848 17.875312zM762.574364 753.316708s2.553616 0 0 0zM323.352419 750.763092c-12.76808 7.660848-25.53616 10.214464-38.304239 10.214464-7.660848 2.553616-17.875312-2.553616-25.53616 5.107232 22.982544 0 45.965087 2.553616 63.840399-10.214464 12.76808-10.214464 20.428928-10.214464 30.643391 2.553616 2.553616 2.553616 5.107232 5.107232 10.214464 7.660848-10.214464-20.428928-22.982544-25.53616-40.857855-15.321696z" fill="#7B0000" p-id="14966"></path><path d="M361.656658 766.084788s2.553616 2.553616 0 0c2.553616 0 0 0 0 0zM851.950923 247.700748c5.107232 25.53616 7.660848 51.072319 10.214464 76.608479 2.553616 20.428928-2.553616 43.411471 10.214463 63.840399 0 0 2.553616 0 2.553616 2.553616-2.553616-5.107232-2.553616-12.76808-2.553616-20.428928-2.553616-45.965087-5.107232-94.483791-15.321695-137.895262-7.660848 2.553616-5.107232 10.214464-5.107232 15.321696zM854.504539 229.825436zM711.502045 842.693267c-35.750623 15.321696-71.501247 15.321696-107.25187 10.214464-7.660848 0-15.321696 0-20.428928 5.107232h2.553616c7.660848 0 17.875312 0 25.536159 2.553616 38.304239 5.107232 76.608479 5.107232 112.359103-17.875312v-2.553616c-5.107232 2.553616-10.214464 2.553616-12.76808 2.553616zM721.716509 842.693267zM463.801297 875.890274c40.857855-7.660848 79.162095-20.428928 120.01995-15.321695-43.411471-15.321696-81.715711-2.553616-120.01995 15.321695zM461.247681 875.890274c2.553616 0 2.553616 0 0 0 2.553616 0 2.553616 0 0 0 2.553616 0 0 0 0 0zM583.821247 860.568579z" fill="#7B0000" p-id="14967"></path><path d="M869.826234 406.024938c2.553616 17.875312 0 35.750623 5.107232 53.625935 5.107232 20.428928-2.553616 40.857855 7.660848 58.733167 0-43.411471-5.107232-86.822943-7.660848-130.234414-5.107232 5.107232-5.107232 10.214464-5.107232 17.875312zM874.933466 388.149626zM165.028229 594.992519c-10.214464-15.321696-15.321696-30.643392-20.428927-45.965088-2.553616-5.107232-5.107232-10.214464-10.214464-12.768079 0 0 0 2.553616-2.553616 2.553616 7.660848 17.875312 12.76808 35.750623 22.982544 51.072319 7.660848 10.214464 10.214464 20.428928 10.214463 33.197007 7.660848-10.214464 5.107232-20.428928 0-28.089775zM170.135461 347.291771c2.553616-2.553616 2.553616-2.553616 2.553616-5.107232-25.53616 22.982544-51.072319 45.965087-58.733167 81.71571 12.76808-30.643392 30.643392-56.179551 56.179551-76.608478zM172.689077 342.184539c0-2.553616 0-2.553616 0 0 0-2.553616 0-2.553616 0 0z" fill="#7B0000" p-id="14968"></path><path d="M882.594314 518.38404c-10.214464 17.875312-7.660848 38.304239-10.214464 56.179551 0 12.76808-7.660848 25.53616 0 35.750623 5.107232-30.643392 7.660848-61.286783 10.214464-91.930174 0 2.553616 0 2.553616 0 0zM874.933466 612.86783c0-2.553616 0-2.553616 0 0zM882.594314 518.38404c0 2.553616 0 2.553616 0 0zM134.384838 523.491272c-7.660848-30.643392-17.875312-61.286783-17.875312-91.930175 0-2.553616-2.553616-5.107232-2.553616-7.660848v2.553616c-2.553616 38.304239 12.76808 71.501247 20.428928 107.251871 0 0 2.553616 0 2.553616 2.553616 0-5.107232 0-7.660848-2.553616-12.76808zM131.831222 533.705736v5.107232l2.553616-2.553616-2.553616-2.553616z" fill="#7B0000" p-id="14969"></path><path d="M113.95591 423.900249c-2.553616 0-2.553616 0 0 0-2.553616 2.553616-2.553616 2.553616 0 0 0 2.553616 0 0 0 0z" fill="#7B0000" p-id="14970"></path><path d="M180.349925 365.167082c-10.214464 7.660848-20.428928 17.875312-28.089775 28.089776-12.76808 15.321696-20.428928 33.197007-17.875312 53.625935 5.107232 33.197007 12.76808 63.840399 25.53616 94.483791 17.875312-33.197007 20.428928-68.947631 35.750623-102.144639 12.76808 12.76808 2.553616 25.53616 0 40.857855-2.553616 38.304239-7.660848 76.608479-7.660848 114.912719 0 58.733167 17.875312 107.25187 63.840399 145.556109 53.625935-15.321696 53.625935-15.321696 53.625935-71.501246-2.553616-71.501247 0-143.002494 25.53616-211.950125 2.553616-5.107232 0-10.214464 2.553616-15.321696 5.107232-10.214464 5.107232-2.553616 7.660848 2.553616 0 2.553616 0 7.660848 2.553616 15.321696 10.214464-17.875312 2.553616-38.304239 17.875311-51.072319 2.553616 5.107232 2.553616 7.660848 0 12.768079-5.107232 33.197007-12.76808 66.394015-17.875311 102.144639-10.214464 58.733167 2.553616 117.466334 2.553616 176.199501 0 22.982544 10.214464 38.304239 28.089775 51.072319 20.428928 0 40.857855-2.553616 61.286783-10.214464 20.428928-7.660848 30.643392-22.982544 30.643392-45.965087 0-48.518703-5.107232-99.591022 0-148.109726 0-33.197007 2.553616-66.394015 10.214464-99.591022v-22.982544c7.660848 5.107232 5.107232 12.76808 10.214463 15.321696 7.660848-28.089776 10.214464-56.179551 28.089776-84.269327 0 10.214464 0 15.321696-2.553616 17.875312-17.875312 68.947631-25.53616 137.895262-17.875312 206.842893 5.107232 38.304239 7.660848 76.608479 22.982544 112.359102 5.107232 12.76808 12.76808 30.643392 30.643391 33.197008 10.214464-2.553616 22.982544-5.107232 33.197008-7.660848 45.965087-15.321696 58.733167-33.197007 58.733167-81.715711 0-61.286783-2.553616-122.573566 15.321696-181.306733 5.107232-15.321696 5.107232-30.643392 15.321696-40.857855V385.59601c7.660848 5.107232 5.107232 15.321696 12.768079 20.428928 2.553616-7.660848 5.107232-17.875312 7.660848-25.53616 2.553616-7.660848 5.107232-17.875312 12.76808-25.53616-28.089776 94.483791-25.53616 191.521197-17.875312 288.558604 2.553616 17.875312 2.553616 35.750623 15.321696 51.072319 12.76808-2.553616 25.53616 2.553616 35.750623 5.107232 35.750623 5.107232 56.179551-5.107232 68.947631-38.304239 10.214464-30.643392 12.76808-63.840399 17.875312-94.483791 7.660848-61.286783 12.76808-122.573566 17.875312-181.306733-2.553616-40.857855-2.553616-81.715711-12.76808-122.573566-10.214464-45.965087-51.072319-66.394015-91.930175-48.518703-22.982544 7.660848-45.965087 15.321696-68.94763 12.768079-33.197007 10.214464-48.518703 0-61.286783-30.643391 2.553616-12.76808 7.660848-12.76808 10.214463-15.321696-33.197007-15.321696-58.733167-10.214464-84.269326 15.321696-15.321696 15.321696-28.089776 30.643392-45.965088 40.857855-17.875312 10.214464-38.304239 20.428928-56.179551-2.553616 2.553616-2.553616 7.660848-2.553616 12.76808-5.107232-28.089776-10.214464-51.072319 0-68.947631 17.875312-17.875312 20.428928-38.304239 30.643392-66.394015 30.643392-25.53616 0-51.072319 7.660848-66.394015 30.643391-15.321696 22.982544-38.304239 38.304239-61.286783 56.179551zM481.676608 237.486284h5.107232-5.107232z" fill="#FEF8E1" p-id="14971"></path><path d="M685.965885 799.281796c2.553616-15.321696 2.553616-30.643392 0-45.965088-2.553616-15.321696-12.76808-7.660848-20.428927-5.107232-10.214464 5.107232-17.875312 12.76808-28.089776 15.321696-17.875312 7.660848-33.197007 10.214464-53.625935 5.107232-25.53616-5.107232-51.072319-2.553616-74.054863 10.214464 38.304239 12.76808 40.857855 20.428928 33.197008 53.625935 20.428928 0 40.857855 0 61.286783 2.553616h38.304239c22.982544 0 40.857855-12.76808 43.411471-35.750623z" fill="#FEF0C2" p-id="14972"></path><path d="M650.215262 610.314214c0 12.76808 0 25.53616-2.553616 38.30424-5.107232 43.411471-30.643392 66.394015-74.054863 74.054863-7.660848 0-15.321696 2.553616-22.982544 0 30.643392 12.76808 58.733167 7.660848 86.822943-7.660848 20.428928-10.214464 33.197007-28.089776 33.197008-53.625935v-33.197008c-2.553616-53.625935-2.553616-107.25187 5.107231-160.877805 2.553616-20.428928 5.107232-40.857855-2.553616-61.286783-7.660848 33.197007-17.875312 66.394015-22.982543 102.144638-2.553616 33.197007 0 66.394015 0 102.144638z" fill="#F3D68B" p-id="14973"></path><path d="M645.10803 630.743142c0 48.518703-12.76808 66.394015-58.733167 81.715711-10.214464 2.553616-20.428928 5.107232-33.197008 7.660848 7.660848 2.553616 15.321696 0 22.982544 0 43.411471-5.107232 66.394015-30.643392 74.054863-74.054863 2.553616-12.76808 0-25.53616 2.553616-38.304239 0-33.197007-2.553616-66.394015 2.553616-99.591023 5.107232-35.750623 15.321696-68.947631 22.982543-102.144638-10.214464 12.76808-12.76808 28.089776-15.321695 40.857855-20.428928 61.286783-17.875312 122.573566-17.875312 183.860349z" fill="#F3D68B" p-id="14974"></path><path d="M839.182843 531.15212c-2.553616 28.089776-7.660848 53.625935-10.214464 79.162094-2.553616 10.214464-5.107232 22.982544-7.660848 33.197008-15.321696 58.733167-53.625935 63.840399-102.144638 48.518703-2.553616 0-7.660848 0-12.76808-2.553616 5.107232 10.214464 15.321696 15.321696 25.53616 17.875312 12.76808 5.107232 28.089776 7.660848 40.857855 15.321696 17.875312 7.660848 30.643392 2.553616 40.857855-12.76808 12.76808-15.321696 20.428928-33.197007 25.53616-53.625935 28.089776-91.930175 22.982544-183.860349 7.660848-278.34414 5.107232 51.072319-2.553616 102.144638-7.660848 153.216958z" fill="#F4D68A" p-id="14975"></path><path d="M813.646683 656.279302c-12.76808 33.197007-33.197007 43.411471-68.947631 38.304239-12.76808-2.553616-22.982544-7.660848-35.750623-5.107232 5.107232 2.553616 7.660848 2.553616 12.76808 5.107232 48.518703 15.321696 86.822943 10.214464 102.144638-48.518703 2.553616-10.214464 5.107232-22.982544 7.660848-33.197008 5.107232-25.53616 7.660848-53.625935 10.214464-79.162094 5.107232-51.072319 12.76808-102.144638 7.660848-153.216958-5.107232 61.286783-10.214464 122.573566-17.875312 181.306733-5.107232 30.643392-7.660848 63.840399-17.875312 94.483791z" fill="#F4D68A" p-id="14976"></path><path d="M731.930973 745.65586c-22.982544-12.76808-48.518703-22.982544-74.054863-7.660848-22.982544 12.76808-45.965087 15.321696-71.501247 15.321696-33.197007-2.553616-63.840399 0-91.930175 20.428928-5.107232 5.107232-15.321696 5.107232-22.982543 7.660848 12.76808 5.107232 25.53616-2.553616 38.304239 0v-2.553616c22.982544-15.321696 48.518703-15.321696 74.054863-12.76808 25.53616 2.553616 48.518703-2.553616 68.947631-15.321696 5.107232-2.553616 7.660848-5.107232 12.76808-5.107232 17.875312-5.107232 25.53616 0 28.089775 17.875312v35.750624c-5.107232 28.089776-20.428928 40.857855-48.518703 40.857855-12.76808 0-28.089776 2.553616-40.857855 0 20.428928 5.107232 40.857855 5.107232 63.840399 2.553616 43.411471-5.107232 71.501247-38.304239 71.501246-81.715711-2.553616-10.214464-2.553616-12.76808-7.660847-15.321696z" fill="#F5D88F" p-id="14977"></path><path d="M645.10803 837.586035c28.089776 0 43.411471-12.76808 48.518703-40.857855 2.553616-12.76808 2.553616-22.982544 0-35.750624-2.553616-17.875312-10.214464-25.53616-28.089775-17.875312-5.107232 2.553616-7.660848 5.107232-12.76808 5.107232-20.428928 12.76808-43.411471 17.875312-68.947631 15.321696-25.53616-2.553616-51.072319-2.553616-74.054863 12.76808v2.553616c22.982544-12.76808 48.518703-15.321696 74.054863-10.214464 20.428928 2.553616 35.750623 0 53.625935-5.107232 10.214464-5.107232 17.875312-12.76808 28.089776-15.321696 7.660848-2.553616 20.428928-10.214464 20.428927 5.107232 2.553616 15.321696 2.553616 30.643392 0 45.965088-5.107232 22.982544-20.428928 35.750623-45.965087 35.750623h-38.304239c15.321696 2.553616 30.643392 2.553616 43.411471 2.553616z" fill="#F5D88F" p-id="14978"></path><path d="M537.85616 804.389027c-5.107232-10.214464-15.321696-15.321696-33.197008-15.321695-30.643392 0-61.286783 5.107232-89.376558 7.660848-10.214464 5.107232-15.321696 10.214464-12.76808 22.982543 2.553616 15.321696 7.660848 25.53616 25.536159 28.089776 38.304239 7.660848 71.501247-5.107232 107.251871-12.76808 5.107232-12.76808 5.107232-22.982544 2.553616-30.643392zM537.85616 804.389027z" fill="#FEF4CD" p-id="14979"></path><path d="M479.122993 587.331671c0-12.76808-2.553616-25.53616-7.660848-38.30424-2.553616 40.857855 0 79.162095 0 120.019951 0 61.286783-38.304239 89.376559-97.037407 74.054862 30.643392 20.428928 84.269327 22.982544 112.359102 2.553616 15.321696-10.214464 20.428928-22.982544 17.875312-38.304239-5.107232-22.982544-10.214464-43.411471-15.321696-63.840399v7.660848c-5.107232-20.428928-12.76808-40.857855-10.214463-63.840399z" fill="#F3D587" p-id="14980"></path><path d="M471.462145 671.600998c0-40.857855-2.553616-79.162095 0-120.019951-2.553616-2.553616-2.553616-5.107232-5.107232-10.214463-5.107232 48.518703 0 99.591022 0 148.109725 0 22.982544-10.214464 35.750623-30.643392 45.965088-20.428928 7.660848-38.304239 10.214464-61.286783 10.214463 58.733167 15.321696 97.037406-12.76808 97.037407-74.054862z" fill="#F3D587" p-id="14981"></path><path d="M333.566883 441.775561c-15.321696 71.501247-30.643392 143.002494-25.53616 217.057357v28.089775c-2.553616 38.304239-20.428928 53.625935-58.733167 51.072319 40.857855 20.428928 79.162095 0 81.715711-45.965087 0-15.321696 0-30.643392-2.553616-45.965087-15.321696-68.947631 2.553616-137.895262 10.214464-206.842893-2.553616 0-5.107232 0-5.107232 2.553616z" fill="#F4D68A" p-id="14982"></path><path d="M331.013267 436.668329c-2.553616 5.107232 0 10.214464-2.553616 15.321696-28.089776 68.947631-28.089776 140.448878-25.53616 211.950125 0 56.179551 0 56.179551-53.625935 71.501247 38.304239 2.553616 56.179551-12.76808 58.733167-51.07232v-28.089775c-5.107232-74.054863 7.660848-145.55611 25.53616-217.057357 0-2.553616 2.553616-2.553616 5.107232-2.553616-2.553616 0-2.553616-7.660848-7.660848 0z" fill="#F4D68A" p-id="14983"></path><path d="M471.462145 543.9202c10.214464 7.660848 7.660848 20.428928 7.660848 30.643391 2.553616 22.982544 0 45.965087 10.214463 68.947631-2.553616-20.428928-5.107232-40.857855-7.660848-63.840399-2.553616-45.965087 2.553616-91.930175-5.107231-137.895262-2.553616 33.197007-5.107232 66.394015-5.107232 99.591023v2.553616z" fill="#F7DE95" p-id="14984"></path><path d="M466.354913 541.366584c2.553616 0 2.553616 2.553616 5.107232 2.553616v-2.553616c0-33.197007 5.107232-66.394015 5.107232-99.591023-7.660848 33.197007-10.214464 66.394015-10.214464 99.591023z" fill="#F7DE95" p-id="14985"></path><path d="M471.462145 543.9202v5.107231c5.107232 12.76808 7.660848 22.982544 7.660848 38.30424 0 22.982544 5.107232 43.411471 10.214463 63.840399v-7.660848c-10.214464-22.982544-7.660848-45.965087-10.214463-68.947631 0-10.214464 2.553616-22.982544-7.660848-30.643391zM471.462145 543.9202c-2.553616 0-2.553616-2.553616-5.107232-2.553616 2.553616 2.553616 2.553616 5.107232 5.107232 10.214463v-7.660847z" fill="#F7DE95" p-id="14986"></path><path d="M198.225237 449.436409c-7.660848 22.982544-12.76808 48.518703-22.982544 74.054863-2.553616 7.660848-2.553616 17.875312-12.76808 20.428928 2.553616 10.214464 5.107232 20.428928 15.321696 30.643391 0-5.107232 0-7.660848 2.553616-12.76808 5.107232-28.089776 5.107232-56.179551 17.875312-81.715711-7.660848-12.76808 2.553616-20.428928 0-30.643391z" fill="#F9EBBF" p-id="14987"></path><path d="M195.671621 439.221945c-15.321696 33.197007-17.875312 71.501247-35.750623 102.144639 10.214464-2.553616 10.214464-12.76808 12.768079-20.428928 7.660848-25.53616 12.76808-48.518703 22.982544-74.054863 5.107232 10.214464-7.660848 20.428928 0 30.643392 5.107232-12.76808 15.321696-25.53616 0-38.30424z" fill="#F9EBBF" p-id="14988"></path><path d="M517.427232 786.513716h5.107232c-2.553616 0-5.107232-2.553616-7.660848-2.553616-2.553616 0-5.107232-2.553616-5.107232-5.107232-2.553616 2.553616-7.660848 2.553616-10.214464 5.107232 5.107232 0 12.76808 2.553616 17.875312 2.553616zM471.462145 781.406484c-17.875312 5.107232-38.304239 2.553616-56.179551 15.321696 20.428928-5.107232 40.857855-10.214464 61.286783-10.214464l-5.107232-5.107232zM540.409776 829.925187v-5.107232c-2.553616 2.553616-5.107232 7.660848-7.660848 10.214464h10.214464c-2.553616-2.553616-5.107232-2.553616-2.553616-5.107232z" fill="#D38D3A" p-id="14989"></path><path d="M509.766384 781.406484c0 2.553616 2.553616 5.107232 5.107232 5.107232s5.107232 2.553616 7.660848 2.553616c20.428928 5.107232 25.53616 20.428928 17.875312 35.750623v5.107232c0 2.553616 2.553616 2.553616 2.553616 5.107232 7.660848-33.197007 2.553616-43.411471-33.197008-53.625935zM499.55192 783.9601c2.553616-2.553616 7.660848-2.553616 10.214464-5.107232-12.76808-2.553616-25.53616 5.107232-38.304239 0l5.107232 5.107232h22.982543zM509.766384 781.406484s0-2.553616 0 0z" fill="#D38D3A" p-id="14990"></path><path d="M537.85616 804.389027c2.553616 7.660848 0 17.875312-5.107232 30.643392 2.553616-2.553616 5.107232-7.660848 7.660848-10.214464 0-7.660848 0-15.321696-2.553616-20.428928z" fill="#D38D3A" p-id="14991"></path><path d="M504.659152 789.067332c17.875312 0 30.643392 5.107232 33.197008 15.321695-2.553616-5.107232-7.660848-10.214464-15.321696-15.321695h-5.107232c-7.660848-2.553616-12.76808-2.553616-20.428928-2.553616-7.660848 2.553616-15.321696 5.107232-22.982543 0-20.428928 2.553616-40.857855 5.107232-61.286783 10.214464 30.643392-5.107232 61.286783-10.214464 91.930174-7.660848z" fill="#D38D3A" p-id="14992"></path><path d="M537.85616 801.835411c0 2.553616 0 2.553616 0 0 2.553616 7.660848 2.553616 15.321696 2.553616 22.982544 7.660848-15.321696 2.553616-30.643392-17.875312-35.750623 7.660848 2.553616 12.76808 7.660848 15.321696 12.768079zM476.569377 783.9601c7.660848 5.107232 15.321696 2.553616 22.982543 0h-22.982543z" fill="#D38D3A" p-id="14993"></path><path d="M673.197805 219.610973c-22.982544-7.660848-35.750623-30.643392-56.179551-38.30424 7.660848 28.089776 25.53616 43.411471 56.179551 38.30424z" fill="#F9E8BA" p-id="14994"></path><path d="M611.911022 188.967581c12.76808 30.643392 28.089776 40.857855 61.286783 30.643392-30.643392 5.107232-48.518703-10.214464-56.179551-38.30424-2.553616 2.553616-7.660848 2.553616-5.107232 7.660848z" fill="#F9E8BA" p-id="14995"></path><path d="M448.479601 242.593516c12.76808 2.553616 22.982544-2.553616 33.197007-5.107232-12.76808 0-25.53616-5.107232-38.304239-7.660848-5.107232 5.107232-2.553616 10.214464 5.107232 12.76808z" fill="#F8E8BB" p-id="14996"></path><path d="M486.78384 237.486284h-5.107232c-10.214464 2.553616-20.428928 7.660848-33.197007 5.107232-7.660848-2.553616-10.214464-5.107232-5.107232-12.76808-5.107232 2.553616-10.214464 2.553616-15.321696 5.107232 20.428928 22.982544 38.304239 12.76808 58.733167 2.553616z" fill="#F8E8BB" p-id="14997"></path></svg>