<?xml version="1.0" standalone="no"?><!DOCTYPE svg PUBLIC "-//W3C//DTD SVG 1.1//EN" "http://www.w3.org/Graphics/SVG/1.1/DTD/svg11.dtd"><svg t="1743214691415" class="icon" viewBox="0 0 1024 1024" version="1.1" xmlns="http://www.w3.org/2000/svg" p-id="12634" xmlns:xlink="http://www.w3.org/1999/xlink" width="200" height="200"><path d="M557.176471 87.762824v325.059764a51.2 51.2 0 0 1-82.31153 40.658824l-78.336-59.994353-90.413176 62.223059a51.2 51.2 0 0 1-80.233412-42.164706V87.762824H161.551059c-24.214588 0-43.821176 19.666824-43.821177 43.881411V752.941176h788.540236V131.644235c0-24.214588-19.606588-43.881412-43.821177-43.881411H557.176471z m-90.352942 0h-150.588235v251.301647l52.495059-36.141177a51.2 51.2 0 0 1 60.144941 1.536l37.948235 29.06353v-245.76zM161.551059 0h700.897882A131.553882 131.553882 0 0 1 993.882353 131.644235V892.385882A131.553882 131.553882 0 0 1 862.448941 1024H161.551059A131.553882 131.553882 0 0 1 30.117647 892.355765V131.614118A131.553882 131.553882 0 0 1 161.551059 0zM120.470588 843.294118v90.352941h783.058824v-90.352941H120.470588z" fill="#6FCE29" p-id="12635"></path></svg>