<?xml version="1.0" standalone="no"?><!DOCTYPE svg PUBLIC "-//W3C//DTD SVG 1.1//EN" "http://www.w3.org/Graphics/SVG/1.1/DTD/svg11.dtd"><svg t="1743214675818" class="icon" viewBox="0 0 1024 1024" version="1.1" xmlns="http://www.w3.org/2000/svg" p-id="12491" xmlns:xlink="http://www.w3.org/1999/xlink" width="200" height="200"><path d="M512 0a512 512 0 1 0 0 1024A512 512 0 0 0 512 0z m-36.571429 265.142857c0-5.046857 4.096-9.142857 9.142858-9.142857h54.857142c5.046857 0 9.142857 4.096 9.142858 9.142857v310.857143A9.142857 9.142857 0 0 1 539.428571 585.142857h-54.857142a9.142857 9.142857 0 0 1-9.142858-9.142857v-310.857143zM512 768A54.857143 54.857143 0 1 1 512 658.285714a54.857143 54.857143 0 0 1 0 109.714286z" fill="#FAAD14" p-id="12492"></path></svg>