<?xml version="1.0" standalone="no"?><!DOCTYPE svg PUBLIC "-//W3C//DTD SVG 1.1//EN" "http://www.w3.org/Graphics/SVG/1.1/DTD/svg11.dtd"><svg t="1743214567224" class="icon" viewBox="0 0 1024 1024" version="1.1" xmlns="http://www.w3.org/2000/svg" p-id="8577" xmlns:xlink="http://www.w3.org/1999/xlink" width="200" height="200"><path d="M179.71 638.14l39-16.17V402l-39-16.19z m606-228.08l-39.12 16.19v75.15h39.12z m50.57-43.85l-81.82-81.7-27.63 27.65 70.33 70.24z m-68 387.08L796 781l98.94-98.86-39.12-16.3zM402 218.68h220l16.17-39H385.85z m-48.38 120l53.12-53.19-16.2-39.09L326 311z m263.63-53.19l53.09 53.19L698 311l-64.6-64.65z m-429.51 80.72l39.12 16.19 155.57-155.56-16.2-39.12z m589.91 24.33L713 326l-27.65 27.63 53.19 53.14z m-136.06-163.7l70.27 70.34 27.63-27.62-81.72-81.84zM338.7 353.59L311.05 326l-64.67 64.58 39.11 16.19z m525.21 24.08V501.4H903V361.51zM238.34 613.89l39.09-16.16V426.25l-39.09-16.19z m656.55-272L682.1 129.08l-16.27 39.15 189.94 189.93z m-31 304.38L903 662.49V522.58h-39.09z m-362.49-408h-91.31l16.17 39.09h75.16z m21.16 0v39.09h75.16l16.2-39.09zM512 703.86c106 0 191.89-85.86 191.89-191.86S618 320.08 512 320.08 320.13 406 320.13 512 406 703.86 512 703.86z m0-75.52a28.17 28.17 0 1 1 28.18-28.17A28.15 28.15 0 0 1 512 628.34z m0-290.75a146.16 146.16 0 0 1 21 0.58A88.18 88.18 0 0 1 512 512a88.15 88.15 0 0 0-33.51 169.7c-78.28-14.7-139.71-91.28-139.71-170.88 0-97.09 79.34-169.02 173.22-173.23z m273.69 185h-39.12v75.15l39.12 16.16zM160.11 377.67L121 361.51v301l39.13-16.22z m341.31-217.61V121h-139.9l16.2 39.06z m-143.22 8.17l-16.28-39.15-212.81 212.81 39.14 16.27z m486.12 217.58l-39 16.19v99.4h39zM662.51 121H522.58v39.06h123.73zM168.25 665.79l-39.14 16.3 99 98.86 27.66-27.66z m497.58 190l16.27 39.12 98.87-99-27.65-27.65z m-288.11 8.13L361.52 903h301l-16.2-39.12z m-134.66-68l98.86 99 16.28-39.12-87.49-87.5z m258.36 9.37H402l-16.18 39h115.6z m120.58 0h-99.42v39h115.59z m222.32-282.71h-39V622l39 16.17zM382.43 797.14L226.86 641.57l-39.12 16.19 178.49 178.47z m24.34-58.64L285.49 617.25l-39.11 16.19 144.19 144.18z m191 8H426.26l-16.17 39.12h203.85z m238.52-88.79l-39.12-16.19-70.33 70.27 27.63 27.62z m-96.77 96.66l-27.63-27.63-70.27 70.35 16.18 39.09z m-1-137.17L617.28 738.5l16.15 39.12 144.22-144.18zM512 452a28.18 28.18 0 1 0-28.15-28.19A28.17 28.17 0 0 0 512 452z" fill="#31315E" p-id="8578"></path></svg>