<?xml version="1.0" standalone="no"?><!DOCTYPE svg PUBLIC "-//W3C//DTD SVG 1.1//EN" "http://www.w3.org/Graphics/SVG/1.1/DTD/svg11.dtd"><svg t="1743214711184" class="icon" viewBox="0 0 1025 1024" version="1.1" xmlns="http://www.w3.org/2000/svg" p-id="13651" xmlns:xlink="http://www.w3.org/1999/xlink" width="200.1953125" height="200"><path d="M568.191365 66.6112c33.163264 53.219328 68.395008 114.448384 103.387136 179.693568a130.834432 130.834432 0 0 0 92.289024 66.996224c69.691392 12.517376 135.665664 25.782272 193.90464 39.284736 47.865856 11.10016 67.332096 68.708352 36.018176 106.55744-40.957952 49.4592-87.031808 102.404096-137.752576 156.450816a131.05152 131.05152 0 0 0-34.484224 105.631744c8.660992 70.459392 15.509504 136.984576 20.70528 198.156288 4.171776 49.2032-45.18912 85.5552-90.86976 66.797568-62.429184-25.643008-118.562816-55.02976-182.29248-86.284288a130.80576 130.80576 0 0 0-113.750016-0.649216c-63.561728 30.271488-123.314176 59.400192-181.602304 84.119552-45.897728 19.46624-96.036864-16.807936-91.785216-66.445312 5.156864-60.479488 11.937792-126.19776 20.48-195.694592a131.008512 131.008512 0 0 0-34.461696-105.631744c-50.731008-54.04672-96.825344-106.989568-137.752576-156.450816-31.322112-37.84704-11.84768-95.455232 36.018176-106.55744 58.218496-13.500416 124.182528-26.76736 193.8944-39.284736a130.920448 130.920448 0 0 0 92.268544-66.996224c35.033088-65.245184 70.21568-126.47424 103.407616-179.693568 25.935872-41.6256 86.417408-41.6256 112.377856 0" fill="#F3EE80" p-id="13652"></path><path d="M383.961477 432.73216c151.027712-84.160512 211.607552-321.128448 211.607552-321.128448a2278.17472 2278.17472 0 0 0-27.377664-44.992512c-25.939968-41.627648-86.421504-41.627648-112.381952 0-33.173504 53.219328-68.364288 114.448384-103.387136 179.693568a130.859008 130.859008 0 0 1-92.289024 66.996224c-69.711872 12.517376-135.675904 25.782272-193.90464 39.284736-47.865856 11.10016-67.330048 68.708352-35.987456 106.55744 40.9088 49.4592 87.003136 102.404096 137.732096 156.450816a130.95936 130.95936 0 0 1 34.461696 105.631744c-8.5504 69.515264-15.302656 135.213056-20.48 195.713024-4.251648 49.637376 45.907968 85.891072 91.785216 66.42688 48.406528-20.527104 97.847296-44.105728 149.620736-68.845568-31.803392-217.817088-161.073152-413.966336-39.399424-481.787904" fill="#ECDB10" p-id="13653"></path><path d="M383.961477 566.902784c0-26.353664-26.845184-47.747072-59.961344-47.747072-33.093632 0-59.930624 21.393408-59.930624 47.747072s26.836992 47.72864 59.930624 47.72864c33.114112-0.002048 59.961344-21.374976 59.961344-47.72864M759.949701 566.902784c0-26.353664-26.845184-47.747072-59.969536-47.747072-33.08544 0-59.932672 21.393408-59.932672 47.747072s26.845184 47.72864 59.932672 47.72864c33.124352-0.002048 59.969536-21.374976 59.969536-47.72864" fill="#F482B1" p-id="13654"></path><path d="M512.000389 559.147008a89.688064 89.688064 0 0 1-55.01952-18.833408c-6.57408-5.076992-7.735296-14.485504-2.656256-21.059584a14.997504 14.997504 0 0 1 21.039104-2.637824c21.561344 16.730112 51.714048 16.730112 73.283584 0a14.98112 14.98112 0 0 1 21.020672 2.637824c5.076992 6.57408 3.897344 15.982592-2.635776 21.059584a89.759744 89.759744 0 0 1-55.031808 18.833408M360.941957 530.39104a12.314624 12.314624 0 0 0-10.254336-5.5296c-1.978368 0-6.957056 0.530432-10.244096 5.5296-4.5568 6.907904-13.86496 8.835072-20.774912 4.29056-6.918144-4.564992-8.84736-13.856768-4.29056-20.764672a42.10688 42.10688 0 0 1 35.309568-19.073024c14.288896 0 27.465728 7.124992 35.328 19.073024 4.53632 6.907904 2.617344 16.197632-4.29056 20.764672-2.568192 1.654784-13.785088 5.984256-20.783104-4.29056" p-id="13655"></path><path d="M683.544965 530.39104a12.285952 12.285952 0 0 0-10.233856-5.5296c-1.988608 0-6.965248 0.530432-10.254336 5.5296a15.003648 15.003648 0 0 1-20.764672 4.29056 15.01184 15.01184 0 0 1-4.308992-20.764672 42.1888 42.1888 0 0 1 35.328-19.073024c14.290944 0 27.475968 7.124992 35.34848 19.073024 4.528128 6.907904 2.598912 16.197632-4.329472 20.764672-2.53952 1.654784-13.758464 5.984256-20.785152-4.29056M193.085829 817.389568c-0.540672 0-1.091584 0-1.632256-0.077824-8.237056-0.905216-14.209024-8.306688-13.324288-16.513024a5780.506624 5780.506624 0 0 1 9.437184-81.401856c4.212736-34.265088-6.918144-68.356096-30.53568-93.507584-46.557184-49.637376-93.114368-102.5024-138.35264-157.177856-18.038784-21.807104-23.420928-50.837504-14.358528-77.664256 9.054208-26.826752 30.920704-46.645248 58.513408-53.061632 56.832-13.187072 122.312704-26.454016 194.64192-39.442432 35.09248-6.2976 64.86016-27.908096 81.727488-59.32032 35.555328-66.248704 70.500352-126.98624 103.870464-180.54144C458.033541 34.689024 483.785093 20.39808 512.008581 20.39808c28.213248 0 53.956608 14.288896 68.9152 38.281216 23.205888 37.218304 47.491072 78.471168 72.153088 122.597376a15.020032 15.020032 0 0 1-5.7856 20.4288c-7.223296 4.03456-16.375808 1.437696-20.410368-5.7856-24.426496-43.692032-48.47616-84.533248-71.426048-121.376768-9.408512-15.13472-25.663488-24.168448-43.446272-24.168448-17.801216 0-34.039808 9.033728-43.476992 24.168448-33.036288 53.00224-67.65568 113.188864-102.885376 178.866176-21.22752 39.520256-58.710016 66.740224-102.866944 74.672128-71.827456 12.890112-136.82688 26.058752-193.155072 39.10656-17.389568 4.03456-31.176704 16.553984-36.882432 33.458176-5.697536 16.88576-2.332672 35.190784 9.05216 48.928768 44.845056 54.183936 90.968064 106.596352 137.10336 155.78112 29.728768 31.668224 43.732992 74.573824 38.438912 117.696512a5324.580864 5324.580864 0 0 0-9.347072 80.951296 15.013888 15.013888 0 0 1-14.903296 13.385728" p-id="13656"></path><path d="M745.699717 1000.056832c-49.381376-20.271104-169.381888-79.908864-183.218176-86.677504-31.883264-15.665152-68.589568-15.843328-100.671488-0.589824-9.82016 4.663296-132.616192 63.356928-182.214656 84.375552-26.462208 11.257856-56.170496 7.872512-79.405056-8.996864-23.2448-16.828416-35.633152-43.948032-33.193984-72.486912 1.368064-15.863808 2.834432-32.043008 4.349952-48.064512a15.003648 15.003648 0 0 1 16.345088-13.522944 14.997504 14.997504 0 0 1 13.520896 16.355328 4215.7568 4215.7568 0 0 0-4.308992 47.788032c-1.554432 17.969152 6.268928 35.033088 20.881408 45.641728 14.67392 10.647552 33.390592 12.754944 50.079744 5.687296 49.016832-20.783104 171.231232-79.159296 181.02272-83.843072 40.425472-19.249152 86.648832-19.013632 126.799872 0.708608 13.85472 6.8096 133.02784 66.011136 181.385216 85.87264 16.572416 6.78912 35.072 4.5056 49.518592-6.08256 14.505984-10.647552 22.24128-27.672576 20.70528-45.584384-5.431296-64.12288-12.40064-130.607104-20.625408-197.584896-5.31456-43.122688 8.697856-86.028288 38.418432-117.716992 46.133248-49.166336 92.268544-101.578752 137.10336-155.762688 11.393024-13.737984 14.759936-32.043008 9.05216-48.928768-5.707776-16.92672-19.484672-29.423616-36.882432-33.458176-56.33024-13.049856-121.317376-26.216448-193.15712-39.10656-44.146688-7.931904-81.637376-35.131392-102.836224-74.672128-3.915776-7.30112-1.161216-16.39424 6.119424-20.330496a15.038464 15.038464 0 0 1 20.312064 6.141952c16.848896 31.412224 46.626816 53.02272 81.717248 59.32032 72.331264 12.990464 137.811968 26.25536 194.654208 39.442432 27.553792 6.395904 49.440768 26.23488 58.494976 53.061632 9.05216 26.826752 3.700736 55.857152-14.348288 77.664256-45.25056 54.675456-91.777024 107.54048-138.344448 157.177856-23.617536 25.151488-34.758656 59.242496-30.54592 93.507584 8.306688 67.350528 15.273984 134.207488 20.783104 198.725632 2.402304 28.379136-11.022336 53.98528-32.868352 72.269824-31.248384 26.181632-68.644864 13.780992-78.6432 9.668608" p-id="13657"></path></svg>