<?xml version="1.0" standalone="no"?><!DOCTYPE svg PUBLIC "-//W3C//DTD SVG 1.1//EN" "http://www.w3.org/Graphics/SVG/1.1/DTD/svg11.dtd"><svg t="1743214645868" class="icon" viewBox="0 0 1024 1024" version="1.1" xmlns="http://www.w3.org/2000/svg" p-id="11301" xmlns:xlink="http://www.w3.org/1999/xlink" width="200" height="200"><path d="M689.152 571.392c98.816 0 178.688 77.824 178.688 173.568 0 37.376-12.288 72.192-33.28 100.352l71.168 72.192c12.288 12.288 12.288 32.768 0 45.056l-1.024 1.024c-12.288 11.264-30.72 12.288-44.032 2.048l-3.584-3.072-71.168-72.192c-29.184 18.432-62.976 28.16-97.28 28.16-98.816 0-178.688-77.824-178.688-173.568 0.512-95.744 80.384-173.568 179.2-173.568zM733.696 51.2c49.152 0 89.088 38.912 89.088 86.528v433.664c-38.912-28.16-86.016-43.52-134.144-43.52-123.392 0-223.232 97.28-223.232 216.576 0 71.168 35.328 134.144 89.6 173.568H197.632c-49.152 0-89.088-38.912-89.088-86.528V137.728C108.544 89.6 148.48 51.2 197.632 51.2h536.064z m-44.544 585.216c-61.44 0-111.616 48.64-111.616 108.544s50.176 108.544 111.616 108.544 111.616-48.64 111.616-108.544-50.176-108.544-111.616-108.544z m-295.424-51.712H244.736c-16.896-0.512-31.232 13.312-31.232 30.208 0 16.896 13.824 30.208 31.232 30.208h148.992c17.408 0 31.232-13.312 31.232-30.208-0.512-16.896-14.336-30.72-31.232-30.208zM478.208 307.2H229.376c-16.896-1.024-25.6 9.728-26.624 31.744v111.104c1.024 10.24 7.68 15.36 20.992 16.384 12.288-1.024 18.432-6.656 19.456-16.384v-97.28c0-5.632 2.56-8.192 7.168-8.192h211.456c3.584 0 5.632 2.56 5.632 6.656V424.96c2.56 4.608-4.096 6.656-20.992 5.632 2.048-1.024 2.56-5.12 2.56-12.288v-45.056c1.024-13.824-6.656-19.968-22.528-19.456H281.088c-13.824 0-20.992 7.168-20.992 22.016V419.84c1.024 10.24 8.704 15.36 24.064 16.384h137.216c-6.656 19.456 1.536 29.184 24.064 30.208 46.592 4.608 67.584-7.168 62.976-35.84V334.848c-0.512-18.432-10.24-27.648-30.208-27.648zM408.576 389.632c2.56 0 4.096 1.536 4.096 4.096v6.656c-1.024 2.048-2.56 3.072-4.096 4.096H302.08c-2.048 0-3.072-1.536-4.096-4.096v-6.656c0-2.56 1.536-4.096 4.096-4.096h106.496z m43.008-169.984H261.632c-13.312 0-19.456 7.168-19.456 22.016V271.36c-1.024 16.384 6.144 24.064 20.992 23.552h186.368c16.896 1.024 24.576-6.656 24.064-22.016v-34.304c-1.024-12.8-7.68-18.944-22.016-18.944zM429.568 250.88c2.56 0 4.096 1.536 4.096 4.096v5.632c0 2.56-1.536 4.096-4.096 4.096H285.184c-2.56 0-4.096-1.536-4.096-4.096v-5.632c0-2.56 1.536-4.096 4.096-4.096h144.384zM367.616 143.872C348.16 134.656 335.36 138.24 329.728 153.6c0 5.632 2.048 10.752 5.632 16.384H214.016c-9.216 1.024-14.336 7.168-15.36 19.456 1.024 11.776 6.144 18.432 15.36 19.456h285.696c11.264-1.024 17.408-7.168 18.432-19.456-1.024-11.776-7.168-18.432-18.432-19.456h-117.76c-1.536-3.072-3.072-6.144-4.096-9.728-3.072-5.632-6.144-11.264-10.24-16.384z" p-id="11302"></path></svg>